<svg xmlns="http://www.w3.org/2000/svg" width="16.031" height="16.031" viewBox="0 0 16.031 16.031">
  <metadata><?xpacket begin="﻿" id="W5M0MpCehiHzreSzNTczkc9d"?>
<x:xmpmeta xmlns:x="adobe:ns:meta/" x:xmptk="Adobe XMP Core 5.6-c138 79.159824, 2016/09/14-01:09:01        ">
   <rdf:RDF xmlns:rdf="http://www.w3.org/1999/02/22-rdf-syntax-ns#">
      <rdf:Description rdf:about=""/>
   </rdf:RDF>
</x:xmpmeta>
                                                                                                    
                                                                                                    
                                                                                                    
                                                                                                    
                                                                                                    
                                                                                                    
                                                                                                    
                                                                                                    
                                                                                                    
                                                                                                    
                                                                                                    
                                                                                                    
                                                                                                    
                                                                                                    
                                                                                                    
                                                                                                    
                                                                                                    
                                                                                                    
                                                                                                    
                                                                                                    
                           
<?xpacket end="w"?></metadata>
<defs>
    <style>
      .cls-1 {
        fill: #ffb100;
        fill-rule: evenodd;
      }
    </style>
  </defs>
  <path id="dates" class="cls-1" d="M372.988,80.962H385a2.008,2.008,0,0,1,2.008,2.008V93.982A2.008,2.008,0,0,1,385,95.989H372.988a2.008,2.008,0,0,1-2.008-2.007V82.97A2.008,2.008,0,0,1,372.988,80.962ZM384,81v1.5a1.527,1.527,0,0,1-1.531,1.5,1.5,1.5,0,0,1-1.5-1.5V81H384Zm-7,0v1.5a1.527,1.527,0,0,1-1.531,1.5,1.5,1.5,0,0,1-1.5-1.5V81H377Zm-2-1.031h1v2.968h-1V79.968Zm7,0h1v2.968h-1V79.968ZM371.987,95.03V84.967h14.062V95.03H371.987Zm3.992-2.074v-3.98h-1.011V88.191a0.286,0.286,0,0,0,.188-0.047,1.39,1.39,0,0,0,.488-0.195,1.266,1.266,0,0,0,.367-0.37,1.385,1.385,0,0,0,.2-0.569H377v5.945h-1.024ZM380.455,88l-0.22,1.35,0.015,0.017a1.386,1.386,0,0,1,.489-0.351,1.529,1.529,0,0,1,.59-0.107,1.554,1.554,0,0,1,.724.162,1.618,1.618,0,0,1,.532.432,1.935,1.935,0,0,1,.33.642,2.648,2.648,0,0,1,.114.785,2.2,2.2,0,0,1-.61,1.537,1.93,1.93,0,0,1-.649.445,1.868,1.868,0,0,1-.787.149,2.59,2.59,0,0,1-.768-0.113,1.885,1.885,0,0,1-.649-0.353,1.743,1.743,0,0,1-.453-0.59,1.944,1.944,0,0,1-.177-0.819h1.118a1.018,1.018,0,0,0,.283.649,0.844,0.844,0,0,0,.622.242,0.8,0.8,0,0,0,.4-0.1,0.952,0.952,0,0,0,.3-0.254,1.172,1.172,0,0,0,.19-0.365,1.415,1.415,0,0,0,.067-0.429,1.45,1.45,0,0,0-.063-0.433,1.035,1.035,0,0,0-.19-0.357,0.878,0.878,0,0,0-.3-0.238,0.9,0.9,0,0,0-.4-0.085,0.926,0.926,0,0,0-.488.114,1.179,1.179,0,0,0-.354.361h-1.008l0.543-3.287h3.078V88h-2.275Z" transform="translate(-370.969 -79.969)"/>
</svg>
