<svg xmlns="http://www.w3.org/2000/svg" width="43" height="60" viewBox="0 0 43 60">
  <metadata><?xpacket begin="﻿" id="W5M0MpCehiHzreSzNTczkc9d"?>
<x:xmpmeta xmlns:x="adobe:ns:meta/" x:xmptk="Adobe XMP Core 5.6-c138 79.159824, 2016/09/14-01:09:01        ">
   <rdf:RDF xmlns:rdf="http://www.w3.org/1999/02/22-rdf-syntax-ns#">
      <rdf:Description rdf:about=""/>
   </rdf:RDF>
</x:xmpmeta>
                                                                                                    
                                                                                                    
                                                                                                    
                                                                                                    
                                                                                                    
                                                                                                    
                                                                                                    
                                                                                                    
                                                                                                    
                                                                                                    
                                                                                                    
                                                                                                    
                                                                                                    
                                                                                                    
                                                                                                    
                                                                                                    
                                                                                                    
                                                                                                    
                                                                                                    
                                                                                                    
                           
<?xpacket end="w"?></metadata>
<defs>
    <style>
      .cls-1 {
        fill: #7f8890;
        fill-rule: evenodd;
      }
    </style>
  </defs>
  <path id="features-icon-5" class="cls-1" d="M202.78,4068.5l-5.8,10.03-3.055-5.03-7.588,12.5H212.9Zm-8.672,15.47h-4.114l3.932-6.36,2.3,2.66Zm2.537,0,6.135-11.18,6.633,11.18H196.645ZM218.963,4056H216v-2.03h-3V4046h-2v7.97h-3V4056H190.985v-2.03h-3V4046h-2v7.97h-3.029V4056h-4.966v50h43v-50h-2.03ZM210,4056h4v3h-4v-3Zm-25.011,0h4v3h-4v-3Zm33.975,48H180.022v-46h2.937v3h8.026v-3H208v3H216v-3h2.967v46Z" transform="translate(-178 -4046)"/>
</svg>
