<svg xmlns="http://www.w3.org/2000/svg" width="30" height="60" viewBox="0 0 30 60">
  <metadata><?xpacket begin="﻿" id="W5M0MpCehiHzreSzNTczkc9d"?>
<x:xmpmeta xmlns:x="adobe:ns:meta/" x:xmptk="Adobe XMP Core 5.6-c138 79.159824, 2016/09/14-01:09:01        ">
   <rdf:RDF xmlns:rdf="http://www.w3.org/1999/02/22-rdf-syntax-ns#">
      <rdf:Description rdf:about=""/>
   </rdf:RDF>
</x:xmpmeta>
                                                                                                    
                                                                                                    
                                                                                                    
                                                                                                    
                                                                                                    
                                                                                                    
                                                                                                    
                                                                                                    
                                                                                                    
                                                                                                    
                                                                                                    
                                                                                                    
                                                                                                    
                                                                                                    
                                                                                                    
                                                                                                    
                                                                                                    
                                                                                                    
                                                                                                    
                                                                                                    
                           
<?xpacket end="w"?></metadata>
<defs>
    <style>
      .cls-1 {
        fill: #7f8890;
        fill-rule: evenodd;
      }
    </style>
  </defs>
  <path id="features-icon-1" class="cls-1" d="M112,3881v-5l-27,5v55h30v-55h-3Zm-2-2.01V3881H98.975Zm3,55.01H87v-51h26v51Zm-10.619-38.83-4.369,7.64-2.3-3.83L90,3908h20ZM96.188,3906H94.415l1.3-2.17,0.879,1.47Zm2.882,0,3.31-5.8,3.311,5.8H99.07Zm4.68,15h-7.5c-0.692,0-1.253.06-1.253,0.75A1.251,1.251,0,0,0,96.25,3923h7.5a1.251,1.251,0,0,0,1.249-1.25C105,3921.06,104.438,3921,103.75,3921Zm5-5h-17.5c-0.688,0-1.249.06-1.249,0.75a1.25,1.25,0,0,0,1.249,1.25h17.5a1.249,1.249,0,0,0,1.248-1.25C110,3916.06,109.439,3916,108.749,3916Z" transform="translate(-85 -3876)"/>
</svg>
