<svg xmlns="http://www.w3.org/2000/svg" width="60" height="56.41" viewBox="0 0 60 56.41">
  <metadata><?xpacket begin="﻿" id="W5M0MpCehiHzreSzNTczkc9d"?>
<x:xmpmeta xmlns:x="adobe:ns:meta/" x:xmptk="Adobe XMP Core 5.6-c138 79.159824, 2016/09/14-01:09:01        ">
   <rdf:RDF xmlns:rdf="http://www.w3.org/1999/02/22-rdf-syntax-ns#">
      <rdf:Description rdf:about=""/>
   </rdf:RDF>
</x:xmpmeta>
                                                                                                    
                                                                                                    
                                                                                                    
                                                                                                    
                                                                                                    
                                                                                                    
                                                                                                    
                                                                                                    
                                                                                                    
                                                                                                    
                                                                                                    
                                                                                                    
                                                                                                    
                                                                                                    
                                                                                                    
                                                                                                    
                                                                                                    
                                                                                                    
                                                                                                    
                                                                                                    
                           
<?xpacket end="w"?></metadata>
<defs>
    <style>
      .cls-1 {
        fill: #7f8890;
        fill-rule: evenodd;
      }
    </style>
  </defs>
  <path id="features-icon-3" class="cls-1" d="M494.421,3904.14l11.285-7.6a0.855,0.855,0,0,0,0-1.42l-11.285-7.59a0.858,0.858,0,0,0-1.347.71v15.2A0.859,0.859,0,0,0,494.421,3904.14Zm0.546-14.29,8.743,5.97-8.743,5.97v-11.94ZM528.726,3878H471.273a1.269,1.269,0,0,0-1.273,1.27v34.4a1.278,1.278,0,0,0,1.273,1.28h27.691v8.84a6.022,6.022,0,0,0-4.511,4.26H474.408c-0.71,0-1.273-.01-1.273.69a1.269,1.269,0,0,0,1.273,1.27h20.057a5.678,5.678,0,0,0,11.07,0h20.057a1.268,1.268,0,0,0,1.273-1.27c0-.71-0.575-0.69-1.273-0.69H505.535a6.057,6.057,0,0,0-4.512-4.26v-8.84h27.691a1.277,1.277,0,0,0,1.274-1.28v-34.4A1.252,1.252,0,0,0,528.726,3878Zm-25.6,50.74a3.123,3.123,0,0,1-6.245,0A3.128,3.128,0,0,1,503.122,3928.74Zm24.819-15.75H472v-32.95h55.956v32.95h-0.012Z" transform="translate(-470 -3878)"/>
</svg>
