<svg xmlns="http://www.w3.org/2000/svg" width="50.093" height="60" viewBox="0 0 50.093 60">
  <metadata><?xpacket begin="﻿" id="W5M0MpCehiHzreSzNTczkc9d"?>
<x:xmpmeta xmlns:x="adobe:ns:meta/" x:xmptk="Adobe XMP Core 5.6-c138 79.159824, 2016/09/14-01:09:01        ">
   <rdf:RDF xmlns:rdf="http://www.w3.org/1999/02/22-rdf-syntax-ns#">
      <rdf:Description rdf:about=""/>
   </rdf:RDF>
</x:xmpmeta>
                                                                                                    
                                                                                                    
                                                                                                    
                                                                                                    
                                                                                                    
                                                                                                    
                                                                                                    
                                                                                                    
                                                                                                    
                                                                                                    
                                                                                                    
                                                                                                    
                                                                                                    
                                                                                                    
                                                                                                    
                                                                                                    
                                                                                                    
                                                                                                    
                                                                                                    
                                                                                                    
                           
<?xpacket end="w"?></metadata>
<defs>
    <style>
      .cls-1 {
        fill: #7f8890;
        fill-rule: evenodd;
      }
    </style>
  </defs>
  <path id="features-icon-7" class="cls-1" d="M622.618,4071H612.025v-7.92H574.95V4101a5.146,5.146,0,0,0,5.166,5h27.245a4.726,4.726,0,0,0,4.664-5v-3h10.593a2.431,2.431,0,0,0,2.416-2.5v-22A2.431,2.431,0,0,0,622.618,4071Zm-12.675,30.5a2.364,2.364,0,0,1-2.332,2.5H579.533a2.5,2.5,0,0,1-2.5-2.5V4065h32.909v36.5Zm2.117-23.5h5.892v13H612.06v-13Zm10.891,18H612.06v-3h5.559c1.38,0,2.5-.62,2.5-2v-13c0-1.38-1.118-2-2.5-2H612.06v-3h10.891v23Zm-18.11-37.03a2.556,2.556,0,0,1-.425-0.87,1.189,1.189,0,0,1,.329-1.25,3.639,3.639,0,0,0,.947-3.73,5.164,5.164,0,0,0-.866-1.67h0a1.264,1.264,0,0,0-.961-0.45,1.25,1.25,0,0,0-1.25,1.25,1.23,1.23,0,0,0,.285.79h0a2.473,2.473,0,0,1,.415.84,1.13,1.13,0,0,1-.331,1.21,3.673,3.673,0,0,0-.946,3.75,5.11,5.11,0,0,0,.859,1.69h0a1.234,1.234,0,0,0,.973.47,1.254,1.254,0,0,0,.972-2.04Zm-9.979.03a5.376,5.376,0,0,1-.767-1.68,3.1,3.1,0,0,1,.7-2.99,5.6,5.6,0,0,0,1.23-5.36,7.746,7.746,0,0,0-1.171-2.48h0a1.249,1.249,0,0,0-1.99,1.51h0a5.289,5.289,0,0,1,.767,1.68,3.1,3.1,0,0,1-.7,2.99,5.591,5.591,0,0,0-1.23,5.36,7.691,7.691,0,0,0,1.172,2.48h0a1.267,1.267,0,0,0,.992.49,1.247,1.247,0,0,0,1-2h0Zm-11.961-5.96,0,0.01h0a0.036,0.036,0,0,0,0-.01h0Zm1.938,5.92a2.6,2.6,0,0,1-.417-0.86,1.18,1.18,0,0,1,.33-1.25,3.64,3.64,0,0,0,.944-3.73,5.143,5.143,0,0,0-.866-1.67h0a1.269,1.269,0,0,0-.963-0.45,1.25,1.25,0,0,0-1.25,1.25,1.225,1.225,0,0,0,.286.79h0a0.042,0.042,0,0,0,0,.01h0a2.452,2.452,0,0,1,.41.83,1.137,1.137,0,0,1-.334,1.21,3.673,3.673,0,0,0-.946,3.75,5.082,5.082,0,0,0,.86,1.69h0a1.231,1.231,0,0,0,.973.47,1.253,1.253,0,0,0,.972-2.04h0Zm0,0h0c0,0.01.006,0.01,0.006,0.01Zm12,16.62-5.459,9.55-2.872-4.79-7.141,11.91H606.36Zm-8.093,14.17H585.78l2.728-4.55,1.452,2.42Zm2.878,0,5.215-9.13,5.214,9.13H591.624Z" transform="translate(-574.938 -4046)"/>
</svg>
