<svg xmlns="http://www.w3.org/2000/svg" width="59.094" height="56.03" viewBox="0 0 59.094 56.03">
  <metadata><?xpacket begin="﻿" id="W5M0MpCehiHzreSzNTczkc9d"?>
<x:xmpmeta xmlns:x="adobe:ns:meta/" x:xmptk="Adobe XMP Core 5.6-c138 79.159824, 2016/09/14-01:09:01        ">
   <rdf:RDF xmlns:rdf="http://www.w3.org/1999/02/22-rdf-syntax-ns#">
      <rdf:Description rdf:about=""/>
   </rdf:RDF>
</x:xmpmeta>
                                                                                                    
                                                                                                    
                                                                                                    
                                                                                                    
                                                                                                    
                                                                                                    
                                                                                                    
                                                                                                    
                                                                                                    
                                                                                                    
                                                                                                    
                                                                                                    
                                                                                                    
                                                                                                    
                                                                                                    
                                                                                                    
                                                                                                    
                                                                                                    
                                                                                                    
                                                                                                    
                           
<?xpacket end="w"?></metadata>
<defs>
    <style>
      .cls-1 {
        fill: #7f8890;
        fill-rule: evenodd;
      }
    </style>
  </defs>
  <path id="features-icon-4" class="cls-1" d="M680.244,3882.29c0.706,0,.778.57,0.778,1.27v16.15c0,0.71-.072,1.28-0.778,1.28a1.277,1.277,0,0,1-1.277-1.28v-16.15A1.275,1.275,0,0,1,680.244,3882.29Zm34.742,43.21v-13.73c0-.7-0.072-1.27-0.778-1.27a1.275,1.275,0,0,0-1.278,1.27v13.73a1.277,1.277,0,0,0,1.278,1.28C714.914,3926.78,714.986,3926.21,714.986,3925.5Zm-42.716-18.53h2.65a1.086,1.086,0,0,0,1.278-1.02c0-.71-0.9-0.95-1.611-0.95h-1.539v-27h25.925v4.4c0,0.71-.095,1.28.611,1.28a1.43,1.43,0,0,0,1.445-1.28v-5.09a1.277,1.277,0,0,0-1.278-1.28H672.27a1.277,1.277,0,0,0-1.278,1.28v28.39A1.275,1.275,0,0,0,672.27,3906.97Zm33.786,18.53v-13.73a1.206,1.206,0,0,0-1.2-1.27c-0.706,0-.861.57-0.861,1.27v13.73c0,0.71.155,1.28,0.861,1.28A1.209,1.209,0,0,0,706.056,3925.5Zm-17.028-.09v-13.64a1.275,1.275,0,0,0-1.278-1.27c-0.706,0-.694.57-0.694,1.27v13.64c0,0.71-.012,1.28.694,1.28A1.277,1.277,0,0,0,689.028,3925.41Zm9.014,0.09v-13.73c0-.7-0.072-1.27-0.778-1.27a1.275,1.275,0,0,0-1.278,1.27v13.73a1.277,1.277,0,0,0,1.278,1.28C697.97,3926.78,698.042,3926.21,698.042,3925.5Zm24.948-18.53V3930h5.83a1.211,1.211,0,0,1,1.278,1.2c0,0.7-.572.86-1.278,0.86H672.95c-0.706,0-1.278-.16-1.278-0.86a1.211,1.211,0,0,1,1.278-1.2h48.067v-23.03H681.025v8.72a1.275,1.275,0,0,1-1.278,1.27c-0.706,0-.695-0.57-0.695-1.27v-9.99c0-.71.572-0.7,1.278-0.7h6.664v-17.74a1.277,1.277,0,0,1,1.278-1.28H728.82a1.209,1.209,0,0,1,1.195,1.28v18.44a1.206,1.206,0,0,1-1.195,1.27h-5.83Zm4.969-1.97v-16.97H689.05V3905h38.909Zm-3.933-11.68v6.39a1.277,1.277,0,0,1-1.278,1.28H694.26a1.277,1.277,0,0,1-1.278-1.28v-6.39a1.277,1.277,0,0,1,1.278-1.28h28.488A1.277,1.277,0,0,1,724.026,3893.32Zm-23.088.61h-5.9v5.01h5.9v-5.01Zm13.077,0H703.077v5.01h10.938v-5.01Zm7.955,0h-5.983v5.01h5.983v-5.01Z" transform="translate(-671 -3876.03)"/>
</svg>
