<svg xmlns="http://www.w3.org/2000/svg" width="38" height="60" viewBox="0 0 38 60">
  <metadata><?xpacket begin="﻿" id="W5M0MpCehiHzreSzNTczkc9d"?>
<x:xmpmeta xmlns:x="adobe:ns:meta/" x:xmptk="Adobe XMP Core 5.6-c138 79.159824, 2016/09/14-01:09:01        ">
   <rdf:RDF xmlns:rdf="http://www.w3.org/1999/02/22-rdf-syntax-ns#">
      <rdf:Description rdf:about=""/>
   </rdf:RDF>
</x:xmpmeta>
                                                                                                    
                                                                                                    
                                                                                                    
                                                                                                    
                                                                                                    
                                                                                                    
                                                                                                    
                                                                                                    
                                                                                                    
                                                                                                    
                                                                                                    
                                                                                                    
                                                                                                    
                                                                                                    
                                                                                                    
                                                                                                    
                                                                                                    
                                                                                                    
                                                                                                    
                                                                                                    
                           
<?xpacket end="w"?></metadata>
<defs>
    <style>
      .cls-1 {
        fill: #7f8890;
        fill-rule: evenodd;
      }
    </style>
  </defs>
  <path id="features-icon-2" class="cls-1" d="M317.734,3876H282.266a1.258,1.258,0,0,0-1.266,1.25v44.5a1.258,1.258,0,0,0,1.266,1.25h8.742v10.94h-4.942a1.253,1.253,0,0,0-1.267,1.25c0,0.69.568,0.81,1.267,0.81h27.868c0.7,0,1.266-.12,1.266-0.81a1.259,1.259,0,0,0-1.266-1.25h-4.942V3923h8.742a1.259,1.259,0,0,0,1.266-1.25v-44.5A1.259,1.259,0,0,0,317.734,3876Zm-10.775,57.94H293.042V3923h13.917v10.94ZM317.03,3921h-34v-43h3.033a1.071,1.071,0,0,0,1.267,1h25.334a1.071,1.071,0,0,0,1.267-1h3.1v43Zm-14.316-33.75-4.978,8.6-2.622-4.32L288.6,3902h22.8Zm-7.238,12.69h-2.4l2.04-3.55,1.181,1.94Zm2.917,0,4.321-7.65,4.321,7.65h-8.642Zm5.49,14h-7.6a1.259,1.259,0,0,0-1.267,1.25c0,0.69.567,0.81,1.267,0.81h7.6c0.7,0,1.267-.12,1.267-0.81A1.259,1.259,0,0,0,303.883,3913.94Zm5.067-5H291.216a1.259,1.259,0,0,0-1.267,1.25c0,0.69.568,0.81,1.267,0.81H308.95c0.7,0,1.266-.12,1.266-0.81A1.259,1.259,0,0,0,308.95,3908.94Z" transform="translate(-281 -3876)"/>
</svg>
