<svg xmlns="http://www.w3.org/2000/svg" width="60" height="53" viewBox="0 0 60 53">
  <metadata><?xpacket begin="﻿" id="W5M0MpCehiHzreSzNTczkc9d"?>
<x:xmpmeta xmlns:x="adobe:ns:meta/" x:xmptk="Adobe XMP Core 5.6-c138 79.159824, 2016/09/14-01:09:01        ">
   <rdf:RDF xmlns:rdf="http://www.w3.org/1999/02/22-rdf-syntax-ns#">
      <rdf:Description rdf:about=""/>
   </rdf:RDF>
</x:xmpmeta>
                                                                                                    
                                                                                                    
                                                                                                    
                                                                                                    
                                                                                                    
                                                                                                    
                                                                                                    
                                                                                                    
                                                                                                    
                                                                                                    
                                                                                                    
                                                                                                    
                                                                                                    
                                                                                                    
                                                                                                    
                                                                                                    
                                                                                                    
                                                                                                    
                                                                                                    
                                                                                                    
                           
<?xpacket end="w"?></metadata>
<defs>
    <style>
      .cls-1 {
        fill: #7f8890;
        fill-rule: evenodd;
      }
    </style>
  </defs>
  <path id="features-icon-6" class="cls-1" d="M428.751,4050h-57.5a1.253,1.253,0,0,0-1.25,1.26v40.38a1.253,1.253,0,0,0,1.25,1.26H392l-1.5,8.07H390c-0.69,0-1.25.07-1.25,0.77A1.259,1.259,0,0,0,390,4103h20a1.258,1.258,0,0,0,1.249-1.26c0-.7-0.559-0.77-1.249-0.77h-0.5l-1.5-8.07h20.749a1.252,1.252,0,0,0,1.249-1.26v-40.38A1.252,1.252,0,0,0,428.751,4050ZM372,4052.02h46V4085H372v-32.98Zm21.048,48.95h0l1.494-8.06h10.911l1.5,8.06h-13.9ZM428,4091.05H372v-4.11h56v4.11Zm0-6.05h-8v-18h8v18Zm0-19.94h-8v-13.04h8v13.04Zm-28,22.71a1.331,1.331,0,0,0-1.249,1.35,1.25,1.25,0,1,0,2.5,0A1.332,1.332,0,0,0,400,4087.77Zm-2.619-26.02-4.367,7.72-2.3-3.87L385,4075.04h20Zm-6.19,11.19h-1.775l1.3-2.44,0.877,1.48Zm2.88,0,3.31-6.1,3.311,6.1h-6.621Z" transform="translate(-370 -4050)"/>
</svg>
