<svg xmlns="http://www.w3.org/2000/svg" width="209" height="191" viewBox="0 0 209 191" fill="none">
<path d="M3.72442 4.43229C3.72442 3.76526 3.53876 2.75254 2.68977 2.70786C2.00962 2.67206 2 2.97937 2 3.57007C2 4.77255 2.91583 6.33651 3.64778 7.27759C4.48431 8.35312 5.67907 3.88869 5.87995 3.39763C6.04046 3.00528 6.86129 1.59304 6.04282 2.11389C5.58881 2.40281 4.92845 3.23439 4.75908 3.74252" stroke="#9D1F14" stroke-width="3" stroke-linecap="round"/>
<path d="M73.7244 4.43229C73.7244 3.76526 73.5388 2.75254 72.6898 2.70786C72.0096 2.67206 72 2.97937 72 3.57007C72 4.77255 72.9158 6.33651 73.6478 7.27759C74.4843 8.35312 75.6791 3.88869 75.88 3.39763C76.0405 3.00528 76.8613 1.59304 76.0428 2.11389C75.5888 2.40281 74.9285 3.23439 74.7591 3.74252" stroke="#9D1F14" stroke-width="3" stroke-linecap="round"/>
<path d="M143.724 4.43229C143.724 3.76526 143.539 2.75254 142.69 2.70786C142.01 2.67206 142 2.97937 142 3.57007C142 4.77255 142.916 6.33651 143.648 7.27759C144.484 8.35312 145.679 3.88869 145.88 3.39763C146.04 3.00528 146.861 1.59304 146.043 2.11389C145.589 2.40281 144.928 3.23439 144.759 3.74252" stroke="#9D1F14" stroke-width="3" stroke-linecap="round"/>
<path d="M41.7244 52.4323C41.7244 51.7653 41.5388 50.7525 40.6898 50.7079C40.0096 50.6721 40 50.9794 40 51.5701C40 52.7725 40.9158 54.3365 41.6478 55.2776C42.4843 56.3531 43.6791 51.8887 43.88 51.3976C44.0405 51.0053 44.8613 49.593 44.0428 50.1139C43.5888 50.4028 42.9285 51.2344 42.7591 51.7425" stroke="#9D1F14" stroke-width="3" stroke-linecap="round"/>
<path d="M111.724 52.4323C111.724 51.7653 111.539 50.7525 110.69 50.7079C110.01 50.6721 110 50.9794 110 51.5701C110 52.7725 110.916 54.3365 111.648 55.2776C112.484 56.3531 113.679 51.8887 113.88 51.3976C114.04 51.0053 114.861 49.593 114.043 50.1139C113.589 50.4028 112.928 51.2344 112.759 51.7425" stroke="#9D1F14" stroke-width="3" stroke-linecap="round"/>
<path d="M181.724 52.4323C181.724 51.7653 181.539 50.7525 180.69 50.7079C180.01 50.6721 180 50.9794 180 51.5701C180 52.7725 180.916 54.3365 181.648 55.2776C182.484 56.3531 183.679 51.8887 183.88 51.3976C184.04 51.0053 184.861 49.593 184.043 50.1139C183.589 50.4028 182.928 51.2344 182.759 51.7425" stroke="#9D1F14" stroke-width="3" stroke-linecap="round"/>
<path d="M3.72442 100.432C3.72442 99.7653 3.53876 98.7525 2.68977 98.7079C2.00962 98.6721 2 98.9794 2 99.5701C2 100.773 2.91583 102.337 3.64778 103.278C4.48431 104.353 5.67907 99.8887 5.87995 99.3976C6.04046 99.0053 6.86129 97.593 6.04282 98.1139C5.58881 98.4028 4.92845 99.2344 4.75908 99.7425" stroke="#9D1F14" stroke-width="3" stroke-linecap="round"/>
<path d="M73.7244 100.432C73.7244 99.7653 73.5388 98.7525 72.6898 98.7079C72.0096 98.6721 72 98.9794 72 99.5701C72 100.773 72.9158 102.337 73.6478 103.278C74.4843 104.353 75.6791 99.8887 75.88 99.3976C76.0405 99.0053 76.8613 97.593 76.0428 98.1139C75.5888 98.4028 74.9285 99.2344 74.7591 99.7425" stroke="#9D1F14" stroke-width="3" stroke-linecap="round"/>
<path d="M143.724 100.432C143.724 99.7653 143.539 98.7525 142.69 98.7079C142.01 98.6721 142 98.9794 142 99.5701C142 100.773 142.916 102.337 143.648 103.278C144.484 104.353 145.679 99.8887 145.88 99.3976C146.04 99.0053 146.861 97.593 146.043 98.1139C145.589 98.4028 144.928 99.2344 144.759 99.7425" stroke="#9D1F14" stroke-width="3" stroke-linecap="round"/>
<path d="M41.7244 148.432C41.7244 147.765 41.5388 146.753 40.6898 146.708C40.0096 146.672 40 146.979 40 147.57C40 148.773 40.9158 150.337 41.6478 151.278C42.4843 152.353 43.6791 147.889 43.88 147.398C44.0405 147.005 44.8613 145.593 44.0428 146.114C43.5888 146.403 42.9285 147.234 42.7591 147.743" stroke="#9D1F14" stroke-width="3" stroke-linecap="round"/>
<path d="M111.724 148.432C111.724 147.765 111.539 146.753 110.69 146.708C110.01 146.672 110 146.979 110 147.57C110 148.773 110.916 150.337 111.648 151.278C112.484 152.353 113.679 147.889 113.88 147.398C114.04 147.005 114.861 145.593 114.043 146.114C113.589 146.403 112.928 147.234 112.759 147.743" stroke="#9D1F14" stroke-width="3" stroke-linecap="round"/>
<path d="M181.724 148.432C181.724 147.765 181.539 146.753 180.69 146.708C180.01 146.672 180 146.979 180 147.57C180 148.773 180.916 150.337 181.648 151.278C182.484 152.353 183.679 147.889 183.88 147.398C184.04 147.005 184.861 145.593 184.043 146.114C183.589 146.403 182.928 147.234 182.759 147.743" stroke="#9D1F14" stroke-width="3" stroke-linecap="round"/>
</svg>