<svg width="2274" height="1480" viewBox="0 0 2274 1480" fill="none" xmlns="http://www.w3.org/2000/svg">
<path d="M1260.23 14C1215.73 86.6667 1104.07 248.7 1013.37 315.5C899.985 399 999.966 508.5 1088.61 530.5C1159.52 548.1 1197.87 596.167 1208.17 618L1301 965.5C1280.56 983.167 1251.94 1032.1 1301 1074.5C1299.28 1109 1270.53 1181.4 1190.14 1199C1109.74 1216.6 1006.15 1242 964.405 1252.5C952 1294 927.649 1461.79 1014.99 1476C1124.9 1493.88 1250.5 1409.5 1320.5 1407.5" stroke="#CFCECD" stroke-width="2"/>
<path d="M2072 11C1908.67 37.8333 1561.3 163.1 1478.5 449.5C1395.7 735.9 1154.33 838.833 1044 854.5H0" stroke="#CFCECD" stroke-width="2"/>
<path d="M1521 346.5L531 852.5L964 1252.5" stroke="#CFCECD" stroke-width="2"/>
<path d="M949 1369C1325 1397.5 2247 1568 2049 1231.5C1986 1105.83 1918.7 867.9 2153.5 921.5L2273.5 964.5" stroke="#CFCECD" stroke-width="2"/>
<circle cx="1262.5" cy="13.5" r="13.5" fill="#9D1F14"/>
<circle cx="1135.5" cy="191.5" r="13.5" fill="#9D1F14"/>
<circle cx="980.5" cy="346.5" r="13.5" fill="#9D1F14"/>
<circle cx="1131" cy="546.5" r="13.5" fill="#9D1F14"/>
<circle cx="1248.5" cy="768.5" r="13.5" fill="#9D1F14"/>
<circle cx="1204.5" cy="1193.5" r="13.5" fill="#9D1F14"/>
<circle cx="950.5" cy="1370.5" r="13.5" fill="#9D1F14"/>
</svg>
