<svg width="1477" height="228" viewBox="0 0 1477 228" fill="none" xmlns="http://www.w3.org/2000/svg">
<path d="M67 223.998C122.667 201.332 269.155 191.994 345 191.994C416.5 191.994 368.5 101.671 368.5 67.4945C368.5 21 658.623 -26.5257 692.5 67.4941C712.5 123 750 91 840.5 95C931 99 983.5 113 1055.5 107C1127.5 101 1253 31.4936 1345.5 49.4938C1419.5 63.894 1449.67 99.0001 1461 126.5" stroke="#9D1F14"/>
<path d="M63.4862 195.364C71.5212 195.903 73.3648 201.702 72.9189 208.352C77.7849 205.57 89.7332 200.857 89.2304 208.355C88.7508 215.507 82.4959 216.236 74.5711 220.291C73.6293 221.435 65.1415 226.86 63.7415 226.225C61.6411 225.272 60.7703 218.504 60.278 216.698C59.1306 212.49 57.286 206.58 57.569 202.359C57.818 198.646 58.2218 195.011 63.4862 195.364Z" fill="#9D1F14"/>
<path d="M72.9189 208.352C73.3648 201.702 71.5212 195.903 63.4862 195.364C58.2218 195.011 57.818 198.646 57.569 202.359C57.286 206.58 59.1306 212.49 60.278 216.698C60.7703 218.504 61.6411 225.272 63.7415 226.225C65.1415 226.86 73.6293 221.435 74.5711 220.291C82.4959 216.236 88.7508 215.507 89.2304 208.355C89.7835 200.106 75.2683 206.635 71.6902 209.115" stroke="#9D1F14" stroke-width="3" stroke-linecap="round"/>
<path d="M359.132 52.7158C365.254 50.0726 368.806 53.6467 370.993 58.7127C373.524 54.8225 380.541 46.8307 383.008 52.5436C385.36 57.9922 381.029 60.8954 376.727 66.8806C376.466 68.0794 372.268 75.2862 370.996 75.3482C369.089 75.4411 365.887 70.7856 364.841 69.6421C362.404 66.9769 358.809 63.322 357.421 60.1066C356.199 57.2775 355.121 54.4476 359.132 52.7158Z" fill="#9D1F14"/>
<path d="M370.993 58.7127C368.806 53.6467 365.254 50.0726 359.132 52.7158C355.121 54.4476 356.199 57.2775 357.421 60.1066C358.809 63.322 362.404 66.9769 364.841 69.6421C365.887 70.7856 369.089 75.4411 370.996 75.3482C372.268 75.2862 376.466 68.0794 376.727 66.8806C381.029 60.8954 385.36 57.9922 383.008 52.5436C380.294 46.259 372.074 56.5595 370.377 59.7397" stroke="#9D1F14" stroke-width="3" stroke-linecap="round"/>
<path d="M806.557 89.7179C809.378 88.6403 810.916 90.3264 811.808 92.6613C813.029 90.9498 816.359 87.4692 817.364 90.1021C818.324 92.6133 816.308 93.8433 814.245 96.4685C814.104 97.0059 812.064 100.186 811.488 100.189C810.623 100.195 809.264 98.0257 808.813 97.488C807.761 96.2348 806.205 94.5113 805.639 93.0293C805.141 91.7254 804.708 90.4239 806.557 89.7179Z" fill="#9D1F14"/>
<path d="M811.808 92.6613C810.916 90.3264 809.378 88.6403 806.557 89.7179C804.708 90.4239 805.141 91.7254 805.639 93.0293C806.205 94.5113 807.761 96.2348 808.813 97.488C809.264 98.0257 810.623 100.195 811.488 100.189C812.064 100.186 814.104 97.0059 814.245 96.4685C816.308 93.8433 818.324 92.6133 817.364 90.1021C816.258 87.2056 812.339 91.7078 811.51 93.1141" stroke="#9D1F14" stroke-width="3" stroke-linecap="round"/>
<path d="M826.904 89.5538C829.726 88.4762 831.264 90.1623 832.156 92.4972C833.376 90.7858 836.706 87.3051 837.712 89.9381C838.671 92.4493 836.655 93.6792 834.593 96.3044C834.451 96.8419 832.412 100.022 831.835 100.025C830.97 100.03 829.611 97.8617 829.16 97.324C828.109 96.0707 826.553 94.3472 825.987 92.8653C825.489 91.5614 825.056 90.2599 826.904 89.5538Z" fill="#9D1F14"/>
<path d="M832.156 92.4972C831.264 90.1623 829.726 88.4762 826.904 89.5538C825.056 90.2599 825.489 91.5614 825.987 92.8653C826.553 94.3472 828.109 96.0707 829.16 97.324C829.611 97.8617 830.97 100.03 831.835 100.025C832.412 100.022 834.451 96.8419 834.593 96.3044C836.655 93.6792 838.671 92.4493 837.712 89.9381C836.606 87.0416 832.687 91.5438 831.857 92.95" stroke="#9D1F14" stroke-width="3" stroke-linecap="round"/>
<path d="M846.904 89.5538C849.726 88.4762 851.264 90.1623 852.156 92.4972C853.376 90.7858 856.706 87.3051 857.712 89.9381C858.671 92.4493 856.655 93.6792 854.593 96.3044C854.451 96.8419 852.412 100.022 851.835 100.025C850.97 100.03 849.611 97.8617 849.16 97.324C848.109 96.0707 846.553 94.3472 845.987 92.8653C845.489 91.5614 845.056 90.2599 846.904 89.5538Z" fill="#9D1F14"/>
<path d="M852.156 92.4972C851.264 90.1623 849.726 88.4762 846.904 89.5538C845.056 90.2599 845.489 91.5614 845.987 92.8653C846.553 94.3472 848.109 96.0707 849.16 97.324C849.611 97.8617 850.97 100.03 851.835 100.025C852.412 100.022 854.451 96.8419 854.593 96.3044C856.655 93.6792 858.671 92.4493 857.712 89.9381C856.606 87.0416 852.687 91.5438 851.857 92.95" stroke="#9D1F14" stroke-width="3" stroke-linecap="round"/>
<path d="M1257.35 42.9231C1262.32 39.0042 1266.45 41.414 1269.69 45.5252C1271.07 41.3397 1275.55 32.2977 1279.2 36.9338C1282.69 41.3555 1279.43 45.0755 1276.95 51.6145C1277 52.7775 1274.91 60.4115 1273.76 60.7788C1272.03 61.3299 1267.96 57.843 1266.72 57.0498C1263.84 55.2011 1259.65 52.7276 1257.59 50.1183C1255.78 47.8223 1254.1 45.4906 1257.35 42.9231Z" fill="#9D1F14"/>
<path d="M1269.69 45.5252C1266.45 41.414 1262.32 39.0042 1257.35 42.9231C1254.1 45.4906 1255.78 47.8223 1257.59 50.1183C1259.65 52.7276 1263.84 55.2011 1266.72 57.0498C1267.96 57.843 1272.03 61.3299 1273.76 60.7788C1274.91 60.4115 1277 52.7775 1276.95 51.6145C1279.43 45.0755 1282.69 41.3555 1279.2 36.9338C1275.18 31.8337 1270.16 43.2868 1269.38 46.6174" stroke="#9D1F14" stroke-width="3" stroke-linecap="round"/>
<path d="M1446.68 105.559C1452.14 102.357 1455.9 105.309 1458.55 109.826C1460.48 105.867 1466.16 97.5239 1469.15 102.617C1472 107.474 1468.26 110.713 1464.9 116.851C1464.8 118.01 1461.68 125.286 1460.49 125.492C1458.71 125.802 1455.15 121.79 1454.03 120.835C1451.43 118.609 1447.61 115.586 1445.93 112.719C1444.45 110.197 1443.11 107.657 1446.68 105.559Z" fill="#9D1F14"/>
<path d="M1458.55 109.826C1455.9 105.309 1452.14 102.357 1446.68 105.559C1443.11 107.657 1444.45 110.197 1445.93 112.719C1447.61 115.586 1451.43 118.609 1454.03 120.835C1455.15 121.79 1458.71 125.802 1460.49 125.492C1461.68 125.286 1464.8 118.01 1464.9 116.851C1468.26 110.713 1472 107.474 1469.15 102.617C1465.86 97.0141 1459.32 107.672 1458.09 110.865" stroke="#9D1F14" stroke-width="3" stroke-linecap="round"/>
<path d="M1457.25 81.3591C1460.4 80.7119 1461.72 82.7457 1462.26 85.3495C1463.83 83.7624 1467.92 80.6801 1468.53 83.6164C1469.1 86.4168 1466.78 87.362 1464.16 89.7637C1463.92 90.3036 1461.23 93.2917 1460.63 93.1964C1459.72 93.0534 1458.66 90.5438 1458.28 89.902C1457.4 88.4062 1456.06 86.3302 1455.72 84.6776C1455.42 83.2234 1455.19 81.7831 1457.25 81.3591Z" fill="#9D1F14"/>
<path d="M1462.26 85.3495C1461.72 82.7456 1460.4 80.7119 1457.25 81.3591C1455.19 81.7831 1455.42 83.2234 1455.72 84.6776C1456.06 86.3302 1457.4 88.4062 1458.28 89.902C1458.66 90.5438 1459.72 93.0534 1460.63 93.1964C1461.23 93.2917 1463.92 90.3036 1464.16 89.7637C1466.78 87.362 1469.1 86.4168 1468.53 83.6164C1467.86 80.3863 1462.98 84.4397 1461.86 85.7735" stroke="#9D1F14" stroke-width="3" stroke-linecap="round"/>
</svg>
