<svg xmlns="http://www.w3.org/2000/svg" width="47.969" height="47.97" viewBox="0 0 47.969 47.97">
  <metadata><?xpacket begin="﻿" id="W5M0MpCehiHzreSzNTczkc9d"?>
<x:xmpmeta xmlns:x="adobe:ns:meta/" x:xmptk="Adobe XMP Core 5.6-c138 79.159824, 2016/09/14-01:09:01        ">
   <rdf:RDF xmlns:rdf="http://www.w3.org/1999/02/22-rdf-syntax-ns#">
      <rdf:Description rdf:about=""/>
   </rdf:RDF>
</x:xmpmeta>
                                                                                                    
                                                                                                    
                                                                                                    
                                                                                                    
                                                                                                    
                                                                                                    
                                                                                                    
                                                                                                    
                                                                                                    
                                                                                                    
                                                                                                    
                                                                                                    
                                                                                                    
                                                                                                    
                                                                                                    
                                                                                                    
                                                                                                    
                                                                                                    
                                                                                                    
                                                                                                    
                           
<?xpacket end="w"?></metadata>
<defs>
    <style>
      .cls-1 {
        fill: #7f8890;
        fill-rule: evenodd;
      }
    </style>
  </defs>
  <path id="icon-6" class="cls-1" d="M464.235,1608.25a0.86,0.86,0,0,0,.159.01,0.8,0.8,0,0,0,.784-0.64c0.05-.25.107-0.5,0.167-0.75a0.8,0.8,0,0,0-1.553-.38q-0.1.4-.183,0.81A0.806,0.806,0,0,0,464.235,1608.25Zm1.036-3.86a0.877,0.877,0,0,0,.316.06,0.8,0.8,0,0,0,.735-0.48c0.1-.24.207-0.47,0.317-0.7a0.8,0.8,0,1,0-1.443-.69q-0.179.375-.344,0.75A0.812,0.812,0,0,0,465.271,1604.39Zm2.257-3.42a0.8,0.8,0,0,0,.656-0.34c0.147-.21.3-0.42,0.452-0.62a0.8,0.8,0,0,0-1.272-.97c-0.168.22-.332,0.44-0.491,0.67A0.806,0.806,0,0,0,467.528,1600.97Zm2.61-3.02a0.831,0.831,0,0,0,.55-0.22c0.186-.18.376-0.35,0.568-0.52a0.8,0.8,0,0,0-1.051-1.21c-0.21.19-.415,0.37-0.617,0.56A0.81,0.81,0,0,0,470.138,1597.95Zm14.573-5.33,0.766,0.06c0.027,0,.053.01,0.079,0.01a0.8,0.8,0,0,0,.078-1.6c-0.275-.03-0.55-0.05-0.829-0.06A0.8,0.8,0,1,0,484.711,1592.62Zm16.923,13.44c0.072,0.24.14,0.49,0.2,0.74a0.8,0.8,0,0,0,.775.6,1.3,1.3,0,0,0,.195-0.02,0.8,0.8,0,0,0,.582-0.97c-0.067-.27-0.141-0.54-0.22-0.81A0.8,0.8,0,1,0,501.634,1606.06Zm-1.109-2.86a0.81,0.81,0,0,0,.721.45,0.866,0.866,0,0,0,.348-0.08,0.8,0.8,0,0,0,.372-1.07c-0.12-.25-0.249-0.5-0.379-0.74a0.8,0.8,0,1,0-1.411.75C500.3,1602.74,500.414,1602.96,500.525,1603.2Zm1.811,6.62c0.021,0.26.037,0.51,0.048,0.77a0.793,0.793,0,0,0,.8.76h0.034a0.8,0.8,0,0,0,.766-0.83c-0.011-.28-0.028-0.56-0.052-0.83A0.8,0.8,0,0,0,502.336,1609.82Zm-21.568-17.03a0.463,0.463,0,0,0,.117-0.01l0.76-.09a0.8,0.8,0,1,0-.164-1.59c-0.277.03-.553,0.06-0.827,0.1A0.8,0.8,0,0,0,480.768,1592.79Zm-3.873.98a0.889,0.889,0,0,0,.276-0.05c0.24-.09.483-0.17,0.726-0.25a0.8,0.8,0,0,0-.485-1.53c-0.267.09-.531,0.18-0.792,0.28A0.8,0.8,0,0,0,476.9,1593.77Zm-3.592,1.74a0.805,0.805,0,0,0,.42-0.12q0.327-.2.662-0.39a0.8,0.8,0,1,0-.786-1.39c-0.242.13-.481,0.28-0.717,0.42a0.8,0.8,0,0,0-.259,1.1A0.786,0.786,0,0,0,473.3,1595.51Zm18.146,32.98c-0.232.1-.466,0.21-0.7,0.3a0.807,0.807,0,0,0-.436,1.05,0.793,0.793,0,0,0,.74.49,0.815,0.815,0,0,0,.3-0.06c0.258-.1.515-0.21,0.767-0.33A0.8,0.8,0,1,0,491.449,1628.49Zm3.3-1.95c-0.207.15-.415,0.3-0.627,0.44a0.8,0.8,0,0,0,.448,1.46,0.815,0.815,0,0,0,.448-0.13c0.23-.16.457-0.32,0.681-0.49A0.8,0.8,0,1,0,494.748,1626.54Zm2.177-30.6c-0.211-.18-0.424-0.36-0.643-0.53a0.8,0.8,0,1,0-.992,1.26c0.2,0.15.4,0.32,0.588,0.48A0.8,0.8,0,1,0,496.925,1595.94Zm-7.219-4.02c-0.265-.08-0.531-0.16-0.8-0.23a0.8,0.8,0,1,0-.416,1.54c0.248,0.07.494,0.14,0.737,0.22a0.992,0.992,0,0,0,.24.03A0.8,0.8,0,0,0,489.706,1591.92Zm7.878,32.04c-0.171.19-.347,0.38-0.524,0.56a0.8,0.8,0,0,0,.014,1.13,0.765,0.765,0,0,0,.559.23,0.8,0.8,0,0,0,.572-0.24c0.194-.2.384-0.4,0.57-0.61A0.8,0.8,0,0,0,497.584,1623.96Zm4.856-7.08a0.8,0.8,0,0,0-1.014.51q-0.123.36-.259,0.72a0.8,0.8,0,0,0,.46,1.03,0.717,0.717,0,0,0,.286.05,0.8,0.8,0,0,0,.748-0.51q0.148-.39.282-0.78A0.807,0.807,0,0,0,502.44,1616.88Zm0.717-3.93a0.8,0.8,0,0,0-.891.7c-0.03.26-.065,0.51-0.106,0.76a0.8,0.8,0,0,0,.663.92,0.549,0.549,0,0,0,.127.01,0.8,0.8,0,0,0,.789-0.67c0.044-.28.083-0.55,0.116-0.83A0.8,0.8,0,0,0,503.157,1612.95Zm-3.377-13.99c-0.169-.22-0.343-0.43-0.521-0.65a0.8,0.8,0,0,0-1.228,1.03q0.246,0.3.481,0.6a0.809,0.809,0,0,0,.635.31,0.748,0.748,0,0,0,.486-0.17A0.8,0.8,0,0,0,499.78,1598.96Zm-11.956,30.76c-0.25.06-.5,0.11-0.754,0.16a0.8,0.8,0,0,0,.146,1.58,0.752,0.752,0,0,0,.149-0.01c0.272-.05.543-0.11,0.812-0.17a0.8,0.8,0,0,0,.6-0.96A0.813,0.813,0,0,0,487.824,1629.72Zm13.113-9.14a0.806,0.806,0,0,0-1.1.29c-0.129.22-.262,0.44-0.4,0.65a0.807,0.807,0,0,0,.242,1.11,0.853,0.853,0,0,0,.431.13,0.8,0.8,0,0,0,.674-0.37c0.151-.24.3-0.47,0.435-0.71A0.811,0.811,0,0,0,500.937,1620.58Zm-7.415-27.02c-0.242-.13-0.487-0.27-0.736-0.39a0.8,0.8,0,0,0-.719,1.43q0.339,0.165.674,0.36a0.783,0.783,0,0,0,.389.1A0.8,0.8,0,0,0,493.522,1593.56ZM460.8,1623.8a0.8,0.8,0,1,1-.8.8A0.795,0.795,0,0,1,460.8,1623.8Zm4.8,0a0.8,0.8,0,1,1-.8.8A0.795,0.795,0,0,1,465.6,1623.8Zm-4.8,4.8a0.8,0.8,0,1,1-.8.8A0.8,0.8,0,0,1,460.8,1628.6Zm4.8,0a0.8,0.8,0,1,1-.8.8A0.8,0.8,0,0,1,465.6,1628.6Zm-2.4-2.4a0.8,0.8,0,1,1-.8.8A0.8,0.8,0,0,1,463.2,1626.2Zm7.2-2.4a0.8,0.8,0,1,1-.8.8A0.795,0.795,0,0,1,470.4,1623.8Zm-2.4,2.4a0.8,0.8,0,1,1-.8.8A0.8,0.8,0,0,1,468,1626.2Zm2.4,2.4a0.8,0.8,0,1,1-.8.8A0.8,0.8,0,0,1,470.4,1628.6Zm-9.6,4.8a0.8,0.8,0,1,1-.8.8A0.8,0.8,0,0,1,460.8,1633.4Zm4.8,0a0.8,0.8,0,1,1-.8.8A0.8,0.8,0,0,1,465.6,1633.4Zm-2.4-2.4a0.8,0.8,0,1,1-.8.8A0.8,0.8,0,0,1,463.2,1631Zm4.8,0a0.8,0.8,0,1,1-.8.8A0.8,0.8,0,0,1,468,1631Zm2.4,2.4a0.8,0.8,0,1,1-.8.8A0.8,0.8,0,0,1,470.4,1633.4Zm17.6-12a14.374,14.374,0,0,0-23.366-11.25,0.791,0.791,0,0,0-1.419.46c-0.01.26-.015,0.52-0.015,0.83a0.062,0.062,0,0,1,0,.02,14.319,14.319,0,0,0-4,9.94c0,0.25.014,0.53,0.036,0.83a9.586,9.586,0,1,0,13.532,13.53c0.3,0.02.577,0.04,0.832,0.04a14.349,14.349,0,0,0,9.935-4H483.6c0.152,0,.306,0,0.457-0.01a0.8,0.8,0,0,0,.783-0.81,0.78,0.78,0,0,0-.142-0.42A14.331,14.331,0,0,0,488,1621.4Zm-22.4,16a8,8,0,0,1-3.826-15.03,0.27,0.27,0,0,0,.077-0.04c0.2-.1.395-0.2,0.6-0.29,0.039-.01.078-0.03,0.117-0.04,0.192-.08.388-0.15,0.587-0.22,0.051-.01.1-0.03,0.152-0.04a5.577,5.577,0,0,1,.575-0.15,1.161,1.161,0,0,1,.182-0.04,5.6,5.6,0,0,1,.578-0.09,1.2,1.2,0,0,1,.189-0.02,6.518,6.518,0,0,1,.768-0.04,8.009,8.009,0,0,1,8,8c0,0.26-.014.51-0.039,0.77-0.006.06-.017,0.12-0.024,0.18-0.023.2-.051,0.39-0.089,0.58-0.012.06-.026,0.12-0.039,0.19-0.042.19-.092,0.38-0.148,0.57-0.015.05-.03,0.1-0.046,0.15-0.064.2-.136,0.4-0.215,0.59-0.016.04-.031,0.08-0.048,0.12-0.088.2-.185,0.4-0.289,0.6-0.014.02-.025,0.05-0.039,0.07A8,8,0,0,1,465.6,1637.4Zm8.351-3.28a9.706,9.706,0,0,0,.886-2.14c0.022-.08.041-0.16,0.062-0.24,0.075-.3.136-0.6,0.182-0.91,0.015-.09.03-0.18,0.042-0.27a9.549,9.549,0,0,0-9.523-10.76,11.062,11.062,0,0,0-1.159.07c-0.093.01-.183,0.03-0.275,0.04a9.216,9.216,0,0,0-.912.19l-0.237.06a9.411,9.411,0,0,0-2.136.89l-0.077.03a12.8,12.8,0,1,1,13.109,13.11C473.927,1634.17,473.936,1634.14,473.951,1634.12Z" transform="translate(-456 -1591.03)"/>
</svg>
