<svg xmlns="http://www.w3.org/2000/svg" width="47.969" height="42" viewBox="0 0 47.969 42">
  <metadata><?xpacket begin="﻿" id="W5M0MpCehiHzreSzNTczkc9d"?>
<x:xmpmeta xmlns:x="adobe:ns:meta/" x:xmptk="Adobe XMP Core 5.6-c138 79.159824, 2016/09/14-01:09:01        ">
   <rdf:RDF xmlns:rdf="http://www.w3.org/1999/02/22-rdf-syntax-ns#">
      <rdf:Description rdf:about=""/>
   </rdf:RDF>
</x:xmpmeta>
                                                                                                    
                                                                                                    
                                                                                                    
                                                                                                    
                                                                                                    
                                                                                                    
                                                                                                    
                                                                                                    
                                                                                                    
                                                                                                    
                                                                                                    
                                                                                                    
                                                                                                    
                                                                                                    
                                                                                                    
                                                                                                    
                                                                                                    
                                                                                                    
                                                                                                    
                                                                                                    
                           
<?xpacket end="w"?></metadata>
<defs>
    <style>
      .cls-1 {
        fill: #7f8890;
        fill-rule: evenodd;
      }
    </style>
  </defs>
  <path id="icon-8" class="cls-1" d="M983.038,1604.83l-9.764-9.86a3.246,3.246,0,0,0-4.629,0l-2.294,2.31a3.316,3.316,0,0,0-.763,1.23l-10.736-1.94s0,0,0-.01a8.973,8.973,0,0,0-10.514,7.08l-0.5,2.48a5.02,5.02,0,1,0,9.838,2l0.3-1.51,4.814,0.42,12.573,12.7,2.279,2.3a1.205,1.205,0,0,1,0,1.69,1.188,1.188,0,0,1-1.674,0l-6.1-6.17a1.1,1.1,0,0,0-1.539,0,1.114,1.114,0,0,0,0,1.56l6.1,6.16a1.213,1.213,0,0,1,.346.85,1.183,1.183,0,0,1-2.02.84l-6.1-6.16a1.079,1.079,0,0,0-1.539,0,1.1,1.1,0,0,0,0,1.55l6.1,6.17a1.2,1.2,0,0,1,0,1.69,1.175,1.175,0,0,1-1.673,0l-6.1-6.17a1.079,1.079,0,0,0-1.539,0,1.112,1.112,0,0,0,0,1.56l6.1,6.16a1.2,1.2,0,0,1,0,1.69,1.169,1.169,0,0,1-1.673,0l-21.6-21.81-2.852-2.87a1.079,1.079,0,0,0-1.539,0,1.1,1.1,0,0,0,0,1.55l2.852,2.88,3.1,3.13-1.711,1.73a3.023,3.023,0,0,0,0,4.24l0.559,0.56a2.976,2.976,0,0,1,2.655,2.68l0.558,0.56a2.9,2.9,0,0,0,1.8.86,2.962,2.962,0,0,0,.854,1.82l0.558,0.57a2.976,2.976,0,0,1,2.655,2.68l0.559,0.56a2.939,2.939,0,0,0,4.194,0l1.711-1.72,4.1,4.13a3.324,3.324,0,0,0,4.753,0,3.368,3.368,0,0,1,3.213-3.24,3.383,3.383,0,0,0,.976-2.26,3.329,3.329,0,0,0,2.237-.98,3.409,3.409,0,0,0,.977-2.26,3.344,3.344,0,0,0,2.237-.99,3.423,3.423,0,0,0,0-4.8l-1.509-1.52,5.52-5.57,3.839-3.88A3.327,3.327,0,0,0,983.038,1604.83Zm-40.907,15.91a0.794,0.794,0,0,1,0-1.12l1.6-1.62,1.674,1.68-1.6,1.62a0.777,0.777,0,0,1-1.116,0Zm3.213,3.25a0.808,0.808,0,0,1,0-1.13l1.6-1.62,1.673,1.69-1.6,1.62a0.785,0.785,0,0,1-1.115,0Zm3.213,3.24a0.806,0.806,0,0,1,0-1.13l1.605-1.62,1.673,1.69-1.6,1.62a0.785,0.785,0,0,1-1.115,0Zm4.887,3.81a0.785,0.785,0,0,1-1.115,0l-0.558-.57a0.794,0.794,0,0,1,0-1.12l1.6-1.62,1.674,1.69Zm18.7-13.64-12.083-12.21a1.076,1.076,0,0,0-.675-0.31l-6.179-.55h-0.1a1.086,1.086,0,0,0-1.066.88l-0.5,2.48a2.836,2.836,0,0,1-3.346,2.24,2.8,2.8,0,0,1-1.8-1.22,2.864,2.864,0,0,1-.419-2.15l0.5-2.48a6.787,6.787,0,0,1,7.975-5.36,0.025,0.025,0,0,0,.023.01l10.58,1.91,1.3,1.32,10.539,10.64Zm9.359-9.46-3.069,3.1L967.89,1600.4a1.108,1.108,0,0,1,0-1.56l2.295-2.32a1.1,1.1,0,0,1,1.549,0l9.764,9.86a1.11,1.11,0,0,1,.321.78A1.076,1.076,0,0,1,981.5,1607.94Zm-2.635-1.44a1.1,1.1,0,1,1-1.089,1.1A1.092,1.092,0,0,1,978.863,1606.5Z" transform="translate(-936.031 -1594)"/>
</svg>
