<svg xmlns="http://www.w3.org/2000/svg" width="40.063" height="48" viewBox="0 0 40.063 48">
  <metadata><?xpacket begin="﻿" id="W5M0MpCehiHzreSzNTczkc9d"?>
<x:xmpmeta xmlns:x="adobe:ns:meta/" x:xmptk="Adobe XMP Core 5.6-c138 79.159824, 2016/09/14-01:09:01        ">
   <rdf:RDF xmlns:rdf="http://www.w3.org/1999/02/22-rdf-syntax-ns#">
      <rdf:Description rdf:about=""/>
   </rdf:RDF>
</x:xmpmeta>
                                                                                                    
                                                                                                    
                                                                                                    
                                                                                                    
                                                                                                    
                                                                                                    
                                                                                                    
                                                                                                    
                                                                                                    
                                                                                                    
                                                                                                    
                                                                                                    
                                                                                                    
                                                                                                    
                                                                                                    
                                                                                                    
                                                                                                    
                                                                                                    
                                                                                                    
                                                                                                    
                           
<?xpacket end="w"?></metadata>
<defs>
    <style>
      .cls-1 {
        fill: #7f8890;
        fill-rule: evenodd;
      }
    </style>
  </defs>
  <path id="icon-3" class="cls-1" d="M980,1433.36c-0.024-1.3-.047-2.52-0.047-3.7a1.673,1.673,0,0,0-1.668-1.68c-7.131,0-12.561-2.07-17.087-6.5a1.648,1.648,0,0,0-2.325,0c-4.526,4.43-9.955,6.5-17.086,6.5a1.672,1.672,0,0,0-1.667,1.68c0,1.18-.024,2.4-0.048,3.7-0.229,12.06-.542,28.58,19.417,35.55a1.7,1.7,0,0,0,1.092,0C980.545,1461.94,980.232,1445.42,980,1433.36Zm-19.965,33.74c-17.117-6.27-17.983-18.86-18-33.68,0.014-.72.028-2.74,0.037-3.43a30.035,30.035,0,0,0,17.967-7.03,29.861,29.861,0,0,0,17.907,7.03c0.009,0.69.023,2.71,0.037,3.43C978.773,1447.42,977.157,1460.83,960.038,1467.1Zm5.743-27.94-8.049,8.11-3.434-3.46a1.671,1.671,0,0,0-2.359,0,1.694,1.694,0,0,0,0,2.38l4.614,4.65a1.663,1.663,0,0,0,2.358,0l9.228-9.3a1.694,1.694,0,0,0,0-2.38A1.669,1.669,0,0,0,965.781,1439.16Z" transform="translate(-940 -1421)"/>
</svg>
