<svg xmlns="http://www.w3.org/2000/svg" width="48.031" height="42" viewBox="0 0 48.031 42">
  <metadata><?xpacket begin="﻿" id="W5M0MpCehiHzreSzNTczkc9d"?>
<x:xmpmeta xmlns:x="adobe:ns:meta/" x:xmptk="Adobe XMP Core 5.6-c138 79.159824, 2016/09/14-01:09:01        ">
   <rdf:RDF xmlns:rdf="http://www.w3.org/1999/02/22-rdf-syntax-ns#">
      <rdf:Description rdf:about=""/>
   </rdf:RDF>
</x:xmpmeta>
                                                                                                    
                                                                                                    
                                                                                                    
                                                                                                    
                                                                                                    
                                                                                                    
                                                                                                    
                                                                                                    
                                                                                                    
                                                                                                    
                                                                                                    
                                                                                                    
                                                                                                    
                                                                                                    
                                                                                                    
                                                                                                    
                                                                                                    
                                                                                                    
                                                                                                    
                                                                                                    
                           
<?xpacket end="w"?></metadata>
<defs>
    <style>
      .cls-1 {
        fill: #7f8890;
        fill-rule: evenodd;
      }
    </style>
  </defs>
  <path id="icon-7" class="cls-1" d="M699.782,1611.93a0.988,0.988,0,0,0,.79-0.02l7.808-3.55a1,1,0,0,0,.47-1.34,0.986,0.986,0,0,0-1.29-.48l-5.469,2.49a19.309,19.309,0,0,1,36.894,1.22,1,1,0,1,0,1.929-.51,21.318,21.318,0,0,0-40.732-1.36l-2.3-5.75a1,1,0,1,0-1.9.62,0.612,0.612,0,0,0,.05.12l3.19,8A1,1,0,0,0,699.782,1611.93Zm44.122,14.76a0.142,0.142,0,0,1-.02-0.06l-3.19-8a1,1,0,0,0-.559-0.56,1.031,1.031,0,0,0-.79.02l-7.809,3.55a1,1,0,0,0,.77,1.85l0.06-.03,5.469-2.49a19.322,19.322,0,0,1-36.913-1.22,1,1,0,1,0-1.93.51,21.318,21.318,0,0,0,40.733,1.36l2.3,5.75A1,1,0,0,0,743.9,1626.69Z" transform="translate(-695.938 -1594)"/>
</svg>
