<svg xmlns="http://www.w3.org/2000/svg" width="44" height="48" viewBox="0 0 44 48">
  <metadata><?xpacket begin="﻿" id="W5M0MpCehiHzreSzNTczkc9d"?>
<x:xmpmeta xmlns:x="adobe:ns:meta/" x:xmptk="Adobe XMP Core 5.6-c138 79.159824, 2016/09/14-01:09:01        ">
   <rdf:RDF xmlns:rdf="http://www.w3.org/1999/02/22-rdf-syntax-ns#">
      <rdf:Description rdf:about=""/>
   </rdf:RDF>
</x:xmpmeta>
                                                                                                    
                                                                                                    
                                                                                                    
                                                                                                    
                                                                                                    
                                                                                                    
                                                                                                    
                                                                                                    
                                                                                                    
                                                                                                    
                                                                                                    
                                                                                                    
                                                                                                    
                                                                                                    
                                                                                                    
                                                                                                    
                                                                                                    
                                                                                                    
                                                                                                    
                                                                                                    
                           
<?xpacket end="w"?></metadata>
<defs>
    <style>
      .cls-1 {
        fill: #7f8890;
        fill-rule: evenodd;
      }
    </style>
  </defs>
  <path id="icon-9" class="cls-1" d="M1211.36,1596.68a0.715,0.715,0,0,0-.72.71v3.05a0.715,0.715,0,1,0,1.43,0v-3.05A0.713,0.713,0,0,0,1211.36,1596.68Zm10.63,41.55a33.516,33.516,0,0,0-2.48-9.81,19.3,19.3,0,0,0-4.76-6.9,13,13,0,0,0-6.44-3.11,14.839,14.839,0,0,0,6.05-15.14,0.7,0.7,0,0,0,.16-0.46v-7.58h2.76v4.76a1.945,1.945,0,0,0-1.23,1.81,2.022,2.022,0,0,0,.41,1.2c-1.01,1.14-1.01,3.45-1.01,4.33a12.472,12.472,0,0,0,.16,1.97,0.711,0.711,0,0,0,.71.6h3.35a0.719,0.719,0,0,0,.71-0.6,11.473,11.473,0,0,0,.16-1.97c0-.88,0-3.19-1.01-4.33a1.952,1.952,0,0,0-.82-3.01v-4.76h0.24a2.115,2.115,0,0,0,0-4.23h-37.9a2.115,2.115,0,0,0,0,4.23h4.43v7.58a0.7,0.7,0,0,0,.16.46,15.187,15.187,0,0,0-.3,3,14.748,14.748,0,0,0,6.35,12.14,13.067,13.067,0,0,0-6.45,3.11,19.157,19.157,0,0,0-4.75,6.9,33.4,33.4,0,0,0-2.47,9.81,0.7,0.7,0,0,0,.71.77h42.54a0.719,0.719,0,0,0,.53-0.23A0.763,0.763,0,0,0,1221.99,1638.23Zm-25.93-14.83-3.82-3.62a14,14,0,0,1,1.6-.13,14.582,14.582,0,0,0,4.99,1.32Zm-5.52-3.25,5.01,4.74a0.714,0.714,0,0,0,.49.2,0.723,0.723,0,0,0,.47-0.18l2.78-2.44v15.09h-19.77a33.438,33.438,0,0,1,2.29-8.6C1183.86,1624.23,1186.79,1621.27,1190.54,1620.15Zm-9.49-27.71h37.9a0.68,0.68,0,0,1,0,1.36h-37.9A0.68,0.68,0,0,1,1181.05,1592.44Zm36.95,9.87a0.514,0.514,0,0,1-.52-0.51,0.515,0.515,0,1,1,1.03,0A0.512,0.512,0,0,1,1218,1602.31Zm0,1.44c0.71,0,1.11,1.27,1.11,3.58a10.553,10.553,0,0,1-.06,1.13h-2.11a10.281,10.281,0,0,1-.06-1.13C1216.88,1605.02,1217.28,1603.75,1218,1603.75Zm-19.48-.22c-1.35,2.68-4.36,6.02-11.03,7.07a13.443,13.443,0,0,1-.44-7.07h11.47Zm-11.61-1.44v-6.86h26.18v6.86h-26.18Zm14.53,1.44h11.51a13.132,13.132,0,0,1,.28,2.74,13.415,13.415,0,0,1-.74,4.4C1205.77,1609.6,1202.78,1606.23,1201.44,1603.53Zm-4.99,4.82a13.022,13.022,0,0,0,3.53-4.56,13.151,13.151,0,0,0,3.25,4.35,17.3,17.3,0,0,0,8.7,3.89,13.2,13.2,0,0,1-23.89-.07A17.487,17.487,0,0,0,1196.45,1608.35Zm4.72,12.62a14.582,14.582,0,0,0,4.99-1.32,13.812,13.812,0,0,1,1.6.13l-3.82,3.62Zm-0.45,1.5,2.77,2.44a0.723,0.723,0,0,0,.47.18,0.7,0.7,0,0,0,.49-0.2l5.01-4.74c3.75,1.12,6.68,4.08,8.73,8.81a33.763,33.763,0,0,1,2.29,8.6h-19.76v-15.09Z" transform="translate(-1178 -1591)"/>
</svg>
