<svg xmlns="http://www.w3.org/2000/svg" width="48" height="48" viewBox="0 0 48 48">
  <metadata><?xpacket begin="﻿" id="W5M0MpCehiHzreSzNTczkc9d"?>
<x:xmpmeta xmlns:x="adobe:ns:meta/" x:xmptk="Adobe XMP Core 5.6-c138 79.159824, 2016/09/14-01:09:01        ">
   <rdf:RDF xmlns:rdf="http://www.w3.org/1999/02/22-rdf-syntax-ns#">
      <rdf:Description rdf:about=""/>
   </rdf:RDF>
</x:xmpmeta>
                                                                                                    
                                                                                                    
                                                                                                    
                                                                                                    
                                                                                                    
                                                                                                    
                                                                                                    
                                                                                                    
                                                                                                    
                                                                                                    
                                                                                                    
                                                                                                    
                                                                                                    
                                                                                                    
                                                                                                    
                                                                                                    
                                                                                                    
                                                                                                    
                                                                                                    
                                                                                                    
                           
<?xpacket end="w"?></metadata>
<defs>
    <style>
      .cls-1 {
        fill: #7f8890;
        fill-rule: evenodd;
      }
    </style>
  </defs>
  <path id="icon-10" class="cls-1" d="M1447.07,1637.02h-14.14a0.913,0.913,0,0,0-.76.92,1.113,1.113,0,0,0,.76,1.09h14.14a1.113,1.113,0,0,0,.76-1.09A0.913,0.913,0,0,0,1447.07,1637.02Zm13.14-18.7a3.824,3.824,0,0,0-.9.11l-4.06-6.82a10.949,10.949,0,0,0,1.38-1.17,11.366,11.366,0,0,0-12.03-18.68,14.9,14.9,0,0,0-19.51,14.18v2.02a4.956,4.956,0,0,0,4.8,4.97h14.01a11.478,11.478,0,0,0,10.07-.51l3.96,6.66a3.8,3.8,0,0,0-1.51,3.03,2.09,2.09,0,0,0,.01.25h-4.85l0.65-2.61a3.3,3.3,0,0,0-.5-2.63,2.762,2.762,0,0,0-2.19-1.07h-19.08a2.762,2.762,0,0,0-2.19,1.07,3.3,3.3,0,0,0-.5,2.63l0.65,2.28h-4.85a2.26,2.26,0,0,0,.01-0.26,3.518,3.518,0,0,0-3.79-3.45,3.788,3.788,0,0,0-.76,7.5v6.65h-1.08a1.759,1.759,0,0,0-1.35.62,1.733,1.733,0,0,0-.39,1.43l0.64,3.88a0.76,0.76,0,0,0,1.5-.25l-0.65-3.87a0.242,0.242,0,0,1,.06-0.21,0.261,0.261,0,0,1,.19-0.09h3.68a0.261,0.261,0,0,1,.19.09,0.277,0.277,0,0,1,.06.21l-0.65,3.87a0.757,0.757,0,0,0,.62.87,0.615,0.615,0,0,0,.13.01,0.769,0.769,0,0,0,.75-0.63l0.64-3.88a1.753,1.753,0,0,0-1.74-2.05h-1.08v-6.65a3.685,3.685,0,0,0,2.59-1.86h5.66l1.62,6.39a4.782,4.782,0,0,0,4.65,3.63h9.86a4.782,4.782,0,0,0,4.65-3.63l1.62-6.47h5.66A3.79,3.79,0,1,0,1460.21,1618.32Zm-30.32-7.33a3.078,3.078,0,0,1-3.28-3.03v-2.02a13.387,13.387,0,0,1,15.91-13.15,11.706,11.706,0,0,0-1.97,1.57,11.254,11.254,0,0,0-2.82,4.69,3.865,3.865,0,0,0-1.77-.44,3.79,3.79,0,1,0,0,7.58,3.743,3.743,0,0,0,1.77-.44,10.329,10.329,0,0,0,2.82,4.44,9.451,9.451,0,0,0,.89.8h-11.55Zm7.48-6.8a2.238,2.238,0,0,1-1.41.49,2.275,2.275,0,1,1,0-4.55,2.238,2.238,0,0,1,1.41.49A11.251,11.251,0,0,0,1437.37,1604.19Zm4.25,5.18a9.854,9.854,0,1,1,13.94,0A9.862,9.862,0,0,1,1441.62,1609.37Zm-21.83,15.01a2.275,2.275,0,1,1,2.27-2.27A2.275,2.275,0,0,1,1419.79,1624.38Zm30.97-4.83-0.74,2.81h-8a0.76,0.76,0,0,0,0,1.52h7.62l-1.53,6.1a3.274,3.274,0,0,1-3.18,2.49h-9.86a3.274,3.274,0,0,1-3.18-2.49l-2.65-10.43a1.229,1.229,0,0,1,.23-1.08,1.246,1.246,0,0,1,.99-0.49h19.08a1.246,1.246,0,0,1,.99.49A1.229,1.229,0,0,1,1450.76,1619.55Zm9.45,4.83a2.291,2.291,0,0,1-2.14-1.5c0-.01-0.01-0.02-0.01-0.03a2.289,2.289,0,0,1,1.21-2.81,0.031,0.031,0,0,1,.02-0.01,2.172,2.172,0,0,1,.92-0.2A2.275,2.275,0,0,1,1460.21,1624.38Zm-26.27,1.92a0.76,0.76,0,0,0-.76.76v0.1a0.76,0.76,0,0,0,.76.76,0.751,0.751,0,0,0,.75-0.76v-0.1A0.751,0.751,0,0,0,1433.94,1626.3Zm11.11,1.62a0.76,0.76,0,0,0,.76-0.76v-0.1a0.76,0.76,0,1,0-1.52,0v0.1A0.76,0.76,0,0,0,1445.05,1627.92Zm9.08-31.05a7.834,7.834,0,1,0,2.29,5.53A7.793,7.793,0,0,0,1454.13,1596.87Zm-1.07,10a6.313,6.313,0,1,1,1.85-4.47A6.3,6.3,0,0,1,1453.06,1606.87Zm-16.09,19.43a0.76,0.76,0,0,0-.76.76v0.1a0.76,0.76,0,0,0,1.52,0v-0.1A0.76,0.76,0,0,0,1436.97,1626.3Zm-1.01-6.97h-2.02a1.767,1.767,0,0,0-1.77,1.77v2.02a1.773,1.773,0,0,0,1.77,1.77h2.02a1.78,1.78,0,0,0,1.77-1.77v-2.02A1.773,1.773,0,0,0,1435.96,1619.33Zm0.25,3.79a0.248,0.248,0,0,1-.25.25h-2.02a0.256,0.256,0,0,1-.26-0.25v-2.02a0.265,0.265,0,0,1,.26-0.26h2.02a0.256,0.256,0,0,1,.25.26v2.02Z" transform="translate(-1416 -1591.03)"/>
</svg>
