<svg xmlns="http://www.w3.org/2000/svg" width="48.03" height="47.97" viewBox="0 0 48.03 47.97">
  <metadata><?xpacket begin="﻿" id="W5M0MpCehiHzreSzNTczkc9d"?>
<x:xmpmeta xmlns:x="adobe:ns:meta/" x:xmptk="Adobe XMP Core 5.6-c138 79.159824, 2016/09/14-01:09:01        ">
   <rdf:RDF xmlns:rdf="http://www.w3.org/1999/02/22-rdf-syntax-ns#">
      <rdf:Description rdf:about=""/>
   </rdf:RDF>
</x:xmpmeta>
                                                                                                    
                                                                                                    
                                                                                                    
                                                                                                    
                                                                                                    
                                                                                                    
                                                                                                    
                                                                                                    
                                                                                                    
                                                                                                    
                                                                                                    
                                                                                                    
                                                                                                    
                                                                                                    
                                                                                                    
                                                                                                    
                                                                                                    
                                                                                                    
                                                                                                    
                                                                                                    
                           
<?xpacket end="w"?></metadata>
<defs>
    <style>
      .cls-1 {
        fill: #7f8890;
        fill-rule: evenodd;
      }
    </style>
  </defs>
  <path id="icon-4" class="cls-1" d="M1222.46,1425.4l-2.91-2.88a5.325,5.325,0,0,0-7.11-.24l-5.11,4.39a0.772,0.772,0,0,0-.17.19l-4.97,8.22-3.19,1.05a0.813,0.813,0,0,0-.32,1.35l8.7,8.63a0.825,0.825,0,0,0,.58.24,0.68,0.68,0,0,0,.19-0.03,0.81,0.81,0,0,0,.59-0.53l1.06-3.17,8.4-5.03a0.648,0.648,0,0,0,.2-0.17l4.32-4.96A5.251,5.251,0,0,0,1222.46,1425.4Zm-0.98,5.99-4.24,4.87-8.55,5.12a0.847,0.847,0,0,0-.35.44l-0.74,2.21-1.96-1.95h0l-2.9-2.88h0l-1.96-1.94,2.22-.74a0.8,0.8,0,0,0,.44-0.35l5.06-8.36,5.01-4.31a3.668,3.668,0,0,1,4.88.17l2.91,2.88A3.6,3.6,0,0,1,1221.48,1431.39Zm-1.35,22.33a9.046,9.046,0,0,0-9.16-2.18l-17.43-17.29a8.9,8.9,0,0,0-2.21-9.09,9.078,9.078,0,0,0-9.67-2.01,0.808,0.808,0,0,0-.28,1.34l5.21,5.17-3.48,3.45-5.21-5.17a0.83,0.83,0,0,0-1.35.28,8.9,8.9,0,0,0,2.02,9.59,9.094,9.094,0,0,0,9.17,2.19l6.52,6.46-8.12,8.05-5.16,2.87a0.856,0.856,0,0,0-.34.34l-2.32,4.61a0.807,0.807,0,0,0,.16.93l2.9,2.88a0.785,0.785,0,0,0,.58.24,0.768,0.768,0,0,0,.36-0.09l4.64-2.3a0.8,0.8,0,0,0,.35-0.33l2.89-5.12,8.12-8.05,6.85,6.8a8.906,8.906,0,0,0,2.21,9.09,9.066,9.066,0,0,0,9.67,2,0.822,0.822,0,0,0,.51-0.59,0.812,0.812,0,0,0-.23-0.74l-5.22-5.18,3.48-3.45,5.22,5.18a0.833,0.833,0,0,0,.75.22,0.846,0.846,0,0,0,.6-0.5A8.9,8.9,0,0,0,1220.13,1453.72Zm-31.17,3.75a0.862,0.862,0,0,0-.14.18l-2.82,5-3.88,1.93-2.06-2.05,1.94-3.86,5.04-2.79a0.623,0.623,0,0,0,.18-0.14l8.2-8.13,1.74,1.73Zm32.04,4.01-4.83-4.78a0.821,0.821,0,0,0-1.16,0l-4.64,4.6a0.809,0.809,0,0,0,0,1.15l4.83,4.78a7.418,7.418,0,0,1-6.66-2,7.287,7.287,0,0,1-1.66-7.86,0.8,0.8,0,0,0-.18-0.87l-18.17-18.01a0.8,0.8,0,0,0-.58-0.24,0.789,0.789,0,0,0-.3.05,7.42,7.42,0,0,1-7.92-1.64,7.3,7.3,0,0,1-2.02-6.6l4.82,4.78a0.821,0.821,0,0,0,1.16,0l4.64-4.6a0.792,0.792,0,0,0,0-1.15l-4.82-4.79a7.424,7.424,0,0,1,6.66,2.01,7.275,7.275,0,0,1,1.66,7.85,0.8,0.8,0,0,0,.18.87l18.17,18.02a0.817,0.817,0,0,0,.88.18,7.419,7.419,0,0,1,7.91,1.64A7.3,7.3,0,0,1,1221,1461.48Z" transform="translate(-1175.94 -1421.03)"/>
</svg>
