<svg xmlns="http://www.w3.org/2000/svg" width="48" height="47.97" viewBox="0 0 48 47.97">
  <metadata><?xpacket begin="﻿" id="W5M0MpCehiHzreSzNTczkc9d"?>
<x:xmpmeta xmlns:x="adobe:ns:meta/" x:xmptk="Adobe XMP Core 5.6-c138 79.159824, 2016/09/14-01:09:01        ">
   <rdf:RDF xmlns:rdf="http://www.w3.org/1999/02/22-rdf-syntax-ns#">
      <rdf:Description rdf:about=""/>
   </rdf:RDF>
</x:xmpmeta>
                                                                                                    
                                                                                                    
                                                                                                    
                                                                                                    
                                                                                                    
                                                                                                    
                                                                                                    
                                                                                                    
                                                                                                    
                                                                                                    
                                                                                                    
                                                                                                    
                                                                                                    
                                                                                                    
                                                                                                    
                                                                                                    
                                                                                                    
                                                                                                    
                                                                                                    
                                                                                                    
                           
<?xpacket end="w"?></metadata>
<defs>
    <style>
      .cls-1 {
        fill: #7f8890;
        fill-rule: evenodd;
      }
    </style>
  </defs>
  <path id="icon-5" class="cls-1" d="M1463.78,1422.01a0.9,0.9,0,0,0-.79-0.79,24.972,24.972,0,0,0-20.64,7.06l-6.07,6.05-8.76,1.12a0.923,0.923,0,0,0-.52.26l-8.45,8.41a0.908,0.908,0,0,0,.48,1.53l6.38,1.18,1.26,1.25-2.67,1.44a0.9,0.9,0,0,0-.47.66,0.908,0.908,0,0,0,.26.78l10.13,10.08a0.909,0.909,0,0,0,.64.27c0.04,0,.09-0.01.13-0.01a0.914,0.914,0,0,0,.67-0.47l1.45-2.66,1.25,1.25,1.18,6.36a0.934,0.934,0,0,0,.63.7,0.842,0.842,0,0,0,.27.04,0.9,0.9,0,0,0,.64-0.26l8.45-8.41a0.984,0.984,0,0,0,.26-0.53l1.13-8.72,6.07-6.04A24.7,24.7,0,0,0,1463.78,1422.01Zm-38.23,23-4.49-.83,7-6.97,6.11-.79Zm8.79,13.89-8.4-8.37,2.07-1.12,7.45,7.42Zm13.38-2.12-7,6.97-0.83-4.47,8.62-8.58Zm7.68-15.5-16.49,16.42-11.76-11.71,16.49-16.42a23.122,23.122,0,0,1,8.53-5.38,10.861,10.861,0,0,0,8.63,8.59A23.137,23.137,0,0,1,1455.4,1441.28Zm5.95-10.24a9.056,9.056,0,0,1-7.43-7.4,23.221,23.221,0,0,1,8.13-.7A23.053,23.053,0,0,1,1461.35,1431.04Zm-18.6,3.34a5.512,5.512,0,0,0,7.81,7.78h0A5.512,5.512,0,1,0,1442.75,1434.38Zm6.52,6.5a3.68,3.68,0,1,1,0-5.22A3.706,3.706,0,0,1,1449.27,1440.88Zm-21.45,16.32a0.905,0.905,0,0,0-1.29,0l-7.81,7.77a0.924,0.924,0,0,0,0,1.29,0.93,0.93,0,0,0,1.29,0l7.81-7.78A0.894,0.894,0,0,0,1427.82,1457.2Zm1.2,2.47-3.52,3.51a0.911,0.911,0,0,0,0,1.28,0.925,0.925,0,0,0,.65.27,0.9,0.9,0,0,0,.64-0.27l3.52-3.5a0.905,0.905,0,0,0,0-1.29A0.924,0.924,0,0,0,1429.02,1459.67Zm-4.75,5.11a0.907,0.907,0,1,0,.52,1.65A0.906,0.906,0,0,0,1424.27,1464.78Zm0.84,0.56c0.03,0.06-.02-0.05,0,0h0Zm-3.41,1.63-0.49.48a0.91,0.91,0,0,0,.65,1.55,0.9,0.9,0,0,0,.64-0.27l0.48-.48a0.9,0.9,0,0,0,.01-1.28A0.924,0.924,0,0,0,1421.7,1466.97Zm-0.66-7.98a0.924,0.924,0,0,0-1.29,0l-3.52,3.5a0.924,0.924,0,0,0,0,1.29,0.93,0.93,0,0,0,1.29,0l3.52-3.51A0.894,0.894,0,0,0,1421.04,1458.99Zm1.45-.35a0.9,0.9,0,0,0,.19-1.69,0.91,0.91,0,0,0-1.17,1.31c0-.01-0.01-0.02.01,0.01s0.01,0.01,0,0A0.915,0.915,0,0,0,1422.49,1458.64Zm2.36-2.16,0.48-.48a0.905,0.905,0,0,0-1.28-1.28l-0.49.48a0.911,0.911,0,0,0,0,1.28A0.905,0.905,0,0,0,1424.85,1456.48Z" transform="translate(-1415.97 -1421.03)"/>
</svg>
