<svg xmlns="http://www.w3.org/2000/svg" width="48" height="45.94" viewBox="0 0 48 45.94">
  <metadata><?xpacket begin="﻿" id="W5M0MpCehiHzreSzNTczkc9d"?>
<x:xmpmeta xmlns:x="adobe:ns:meta/" x:xmptk="Adobe XMP Core 5.6-c138 79.159824, 2016/09/14-01:09:01        ">
   <rdf:RDF xmlns:rdf="http://www.w3.org/1999/02/22-rdf-syntax-ns#">
      <rdf:Description rdf:about=""/>
   </rdf:RDF>
</x:xmpmeta>
                                                                                                    
                                                                                                    
                                                                                                    
                                                                                                    
                                                                                                    
                                                                                                    
                                                                                                    
                                                                                                    
                                                                                                    
                                                                                                    
                                                                                                    
                                                                                                    
                                                                                                    
                                                                                                    
                                                                                                    
                                                                                                    
                                                                                                    
                                                                                                    
                                                                                                    
                                                                                                    
                           
<?xpacket end="w"?></metadata>
<defs>
    <style>
      .cls-1 {
        fill: #7f8890;
        fill-rule: evenodd;
      }
    </style>
  </defs>
  <path id="icon-2" class="cls-1" d="M740.4,1422.09H699.6a3.572,3.572,0,0,0-3.6,3.57v29.72a3.572,3.572,0,0,0,3.6,3.57h14.265a3.241,3.241,0,0,1-1.625,3.11l-1.44,1.04a0.922,0.922,0,0,0-.342.34,1.922,1.922,0,0,0-1.658,1.9,2.622,2.622,0,0,0,2.4,2.69h17.6a2.622,2.622,0,0,0,2.4-2.69,1.953,1.953,0,0,0-1.818-1.94,0.871,0.871,0,0,0-.262-0.3l-1.44-1.04a3.208,3.208,0,0,1-1.595-3.11H740.4a3.572,3.572,0,0,0,3.6-3.57v-29.72A3.572,3.572,0,0,0,740.4,1422.09Zm-42.425,3.82a1.97,1.97,0,0,1,2-1.98h40.05a1.97,1.97,0,0,1,2,1.98v24.07h-44.05v-24.07Zm30.825,40.1H711.2a0.668,0.668,0,0,1-.8-0.67c0-.48.32-0.29,0.8-0.29h17.6c0.48,0,.8-0.19.8,0.29A0.668,0.668,0,0,1,728.8,1466.01Zm-2.16-2.99H713.28c1.52-1.11,2.32-2.25,2.24-4.07h8.96C724.32,1460.77,725.2,1461.91,726.64,1463.02Zm15.385-8.01a1.97,1.97,0,0,1-2,1.98H699.6c-1.12,0-1.625-.87-1.625-1.98v-3.07h44.05v3.07h0Zm-32.105-17.85,5.84-5.79a0.762,0.762,0,0,0,0-1.11,0.773,0.773,0,0,0-1.12,0l-6.4,6.35a0.713,0.713,0,0,0-.16.87,1.1,1.1,0,0,0,.24.32l6.32,6.26a0.773,0.773,0,0,0,1.12,0,0.762,0.762,0,0,0,0-1.11Zm21.76-.63-6.32-6.27a0.773,0.773,0,0,0-1.12,0,0.762,0.762,0,0,0,0,1.11l5.84,5.79-5.84,5.79a0.762,0.762,0,0,0,0,1.11,0.773,0.773,0,0,0,1.12,0l6.4-6.34a0.73,0.73,0,0,0,.16-0.88A1.19,1.19,0,0,0,731.68,1436.53Zm-9.84-6.43a0.759,0.759,0,0,0-.96.56l-3.2,12.69a0.753,0.753,0,0,0,.56.95h0.16a0.8,0.8,0,0,0,.8-0.56l3.2-12.69A0.753,0.753,0,0,0,721.84,1430.1Z" transform="translate(-696 -1422.09)"/>
</svg>
