<svg width="37" height="34" viewBox="0 0 37 34" fill="none" xmlns="http://www.w3.org/2000/svg">
<path d="M5.49995 3.99986C13.0229 1.12643 17.1246 5.62237 19.5026 11.8482C22.7575 7.28473 31.6366 -1.99632 34.3182 5.02441C36.8757 11.7204 31.5 15 26 22C25.6233 23.433 20.1851 31.9124 18.6478 31.9215C16.3415 31.9353 12.7178 26.1524 11.515 24.7186C8.71167 21.3768 4.56289 16.7811 3.05361 12.8296C1.72562 9.3528 0.571054 5.88247 5.49995 3.99986Z" fill="#9D1F14"/>
<path d="M19.5026 11.8482C17.1246 5.62237 13.0229 1.12643 5.49995 3.99986C0.571054 5.88247 1.72562 9.3528 3.05361 12.8296C4.56289 16.7811 8.71167 21.3768 11.515 24.7186C12.7178 26.1524 16.3415 31.9353 18.6478 31.9215C20.1851 31.9124 25.6233 23.433 26 22C31.5 15 36.8757 11.7204 34.3182 5.02441C31.3682 -2.69902 20.918 9.3059 18.7062 13.0557" stroke="#9D1F14" stroke-width="3" stroke-linecap="round"/>
</svg>
